Coordinates
version=1
nRows=12
nColumns=24
inDegrees=yes

Units are S.I. units (second, meters, Newtons, ...)
Angles are in degrees.

endheader
time	pelvis_tilt	pelvis_list	pelvis_rotation	pelvis_tx	pelvis_ty	pelvis_tz	hip_flexion_r	hip_adduction_r	hip_rotation_r	knee_angle_r	ankle_angle_r	subtalar_angle_r	mtp_angle_r	hip_flexion_l	hip_adduction_l	hip_rotation_l	knee_angle_l	ankle_angle_l	subtalar_angle_l	mtp_angle_l	lumbar_extension	lumbar_bending	lumbar_rotation
      1.15683333	      2.41541266	      5.76911390	     -4.03678137	      0.16652795	      1.02342816	      0.25476080	     12.82587937	     -6.03014568	     -1.60360721	    -63.50430621	      4.15688808	    -19.96495919	     -1.52026726	      4.64705915	      9.19187897	      0.74447262	    -10.13649913	      2.26593370	    -15.12220540	      0.97802747	     -5.75854034	     -7.32299352	      4.45310609
      1.16100000	      2.36396573	      5.62411099	     -4.01884883	      0.17160625	      1.02407883	      0.25472335	     13.35375020	     -5.80777081	     -1.51459853	    -62.91754807	      4.37222558	    -19.87691071	     -1.60144552	      4.23429354	      9.06630222	      0.86116329	     -9.87827164	      2.37227460	    -15.17062036	      0.88389106	     -5.75329347	     -7.18616667	      4.24875358
      1.16516667	      2.32043876	      5.47897002	     -4.01034353	      0.17667722	      1.02470404	      0.25471850	     13.85898643	     -5.58049552	     -1.41400860	    -62.26574590	      4.56886991	    -19.77956052	     -1.61997074	      3.81571014	      8.93455481	      0.92981857	     -9.62203443	      2.47931175	    -15.15659950	      0.85234308	     -5.76440949	     -7.04231623	      4.14340676
      1.16933333	      2.31232434	      5.33600067	     -3.96391320	      0.18175790	      1.02536775	      0.25464659	     14.29324488	     -5.37739310	     -1.36876365	    -61.53802158	      4.75343969	    -19.62104332	     -1.65804668	      3.34329578	      8.81441013	      1.07959115	     -9.33825010	      2.59313420	    -15.19293948	      0.77233594	     -5.81950187	     -6.89913189	      3.85868177
      1.17350000	      2.25578662	      5.20049185	     -3.93683602	      0.18684267	      1.02591181	      0.25463650	     14.77273806	     -5.16433732	     -1.28751535	    -60.76066179	      4.93128083	    -19.48154382	     -1.66731614	      2.93357759	      8.68989684	      1.15181717	     -9.06899458	      2.68226209	    -15.18445708	      0.73621868	     -5.81009264	     -6.76596838	      3.72478264
      1.17766667	      2.24668737	      5.06691303	     -3.87484464	      0.19193250	      1.02649667	      0.25457124	     15.16970591	     -4.97773266	     -1.26293793	    -59.91283639	      5.08831571	    -19.31036257	     -1.68210650	      2.45573296	      8.57537384	      1.30773483	     -8.76969167	      2.79469759	    -15.21660706	      0.65572420	     -5.86333198	     -6.63486371	      3.41198746
      1.18183333	      2.18776749	      4.93672356	     -3.83762148	      0.19703403	      1.02696487	      0.25455962	     15.61366704	     -4.77663324	     -1.19887433	    -59.01860697	      5.23546853	    -19.16866008	     -1.68210547	      2.03851322	      8.45290146	      1.37476435	     -8.47753292	      2.87883217	    -15.18679306	      0.62580489	     -5.85357884	     -6.49272845	      3.28457016
      1.18600000	      2.19249980	      4.80580416	     -3.75733198	      0.20211878	      1.02749898	      0.25450814	     15.95117087	     -4.59709251	     -1.19511596	    -58.04769133	      5.35611846	    -19.00578316	     -1.68045962	      1.54618246	      8.33717900	      1.53512091	     -8.17763134	      2.98527979	    -15.21516656	      0.54205010	     -5.92485500	     -6.38228552	      2.92788356
      1.19016667	      2.12524234	      4.67751232	     -3.69632052	      0.20722991	      1.02789043	      0.25449869	     16.35670247	     -4.40491702	     -1.15911070	    -57.03139960	      5.47045028	    -18.85825170	     -1.67517998	      1.14111087	      8.21155176	      1.60825109	     -7.89232545	      3.05951256	    -15.18612227	      0.50539034	     -5.90020513	     -6.25389310	      2.77888526
      1.19433333	      2.13563871	      4.55889618	     -3.61015092	      0.21232702	      1.02835211	      0.25444631	     16.65196014	     -4.24870800	     -1.17308235	    -55.95755359	      5.54641055	    -18.73684387	     -1.66305505	      0.63454056	      8.10469207	      1.75660152	     -7.57107051	      3.17046768	    -15.19114880	      0.42684217	     -5.97465779	     -6.14240419	      2.42822842
      1.19850000	      2.06183499	      4.43972507	     -3.53731551	      0.21743956	      1.02864953	      0.25443909	     17.02583572	     -4.07403339	     -1.15529049	    -54.83992126	      5.63100686	    -18.60051359	     -1.65425293	      0.23495000	      7.98451616	      1.83150368	     -7.27862808	      3.23952781	    -15.15317775	      0.39103857	     -5.94631688	     -6.02456852	      2.26944141
      1.20266667	      2.07294048	      4.32673565	     -3.44162504	      0.22254636	      1.02903116	      0.25439692	     17.27952233	     -3.93060961	     -1.18594888	    -53.66281574	      5.65611319	    -18.53208586	     -1.63619852	     -0.27369924	      7.87793199	      1.97350155	     -6.95263883	      3.35342036	    -15.14691390	      0.31501151	     -6.02167167	     -5.91834803	      1.90280207
